<?xml version="1.0" encoding="utf-8" standalone="no"?>
<!DOCTYPE svg PUBLIC "-//W3C//DTD SVG 1.1//EN"
  "http://www.w3.org/Graphics/SVG/1.1/DTD/svg11.dtd">
<svg xmlns:xlink="http://www.w3.org/1999/xlink" width="586.065525pt" height="325.986375pt" viewBox="0 0 586.065525 325.986375" xmlns="http://www.w3.org/2000/svg" version="1.1">
 <metadata>
  <rdf:RDF xmlns:dc="http://purl.org/dc/elements/1.1/" xmlns:cc="http://creativecommons.org/ns#" xmlns:rdf="http://www.w3.org/1999/02/22-rdf-syntax-ns#">
   <cc:Work>
    <dc:type rdf:resource="http://purl.org/dc/dcmitype/StillImage"/>
    <dc:date>2024-02-07T14:50:34.859751</dc:date>
    <dc:format>image/svg+xml</dc:format>
    <dc:creator>
     <cc:Agent>
      <dc:title>Matplotlib v3.8.2, https://matplotlib.org/</dc:title>
     </cc:Agent>
    </dc:creator>
   </cc:Work>
  </rdf:RDF>
 </metadata>
 <defs>
  <style type="text/css">*{stroke-linejoin: round; stroke-linecap: butt}</style>
 </defs>
 <g id="figure_1">
  <g id="patch_1">
   <path d="M 0 325.986375 
L 586.065525 325.986375 
L 586.065525 0 
L 0 0 
z
" style="fill: #ffffff"/>
  </g>
  <g id="axes_1">
   <g id="patch_2">
    <path d="M 40.603125 288.430125 
L 397.723125 288.430125 
L 397.723125 22.318125 
L 40.603125 22.318125 
z
" style="fill: #ffffff"/>
   </g>
   <g id="PolyCollection_1"/>
   <g id="PolyCollection_2"/>
   <g id="PolyCollection_3"/>
   <g id="PolyCollection_4"/>
   <g id="PolyCollection_5"/>
   <g id="PolyCollection_6"/>
   <g id="PolyCollection_7"/>
   <g id="PolyCollection_8"/>
   <g id="PolyCollection_9"/>
   <g id="PolyCollection_10"/>
   <g id="PolyCollection_11"/>
   <g id="PolyCollection_12"/>
   <g id="PolyCollection_13"/>
   <g id="PolyCollection_14"/>
   <g id="PolyCollection_15"/>
   <g id="PolyCollection_16"/>
   <g id="PolyCollection_17"/>
   <g id="PolyCollection_18"/>
   <g id="PolyCollection_19"/>
   <g id="PolyCollection_20"/>
   <g id="PolyCollection_21"/>
   <g id="PolyCollection_22"/>
   <g id="PolyCollection_23"/>
   <g id="PolyCollection_24"/>
   <g id="matplotlib.axis_1">
    <g id="xtick_1">
     <g id="line2d_1">
      <defs>
       <path id="m9fcc0672a5" d="M 0 0 
L 0 3.5 
" style="stroke: #000000; stroke-width: 0.8"/>
      </defs>
      <g>
       <use xlink:href="#m9fcc0672a5" x="56.835852" y="288.430125" style="stroke: #000000; stroke-width: 0.8"/>
      </g>
     </g>
     <g id="text_1">
      <!-- $\mathdefault{2^{0}}$ -->
      <g transform="translate(51.235852 303.028562) scale(0.1 -0.1)">
       <defs>
        <path id="DejaVuSans-32" d="M 1228 531 
L 3431 531 
L 3431 0 
L 469 0 
L 469 531 
Q 828 903 1448 1529 
Q 2069 2156 2228 2338 
Q 2531 2678 2651 2914 
Q 2772 3150 2772 3378 
Q 2772 3750 2511 3984 
Q 2250 4219 1831 4219 
Q 1534 4219 1204 4116 
Q 875 4013 500 3803 
L 500 4441 
Q 881 4594 1212 4672 
Q 1544 4750 1819 4750 
Q 2544 4750 2975 4387 
Q 3406 4025 3406 3419 
Q 3406 3131 3298 2873 
Q 3191 2616 2906 2266 
Q 2828 2175 2409 1742 
Q 1991 1309 1228 531 
z
" transform="scale(0.015625)"/>
        <path id="DejaVuSans-30" d="M 2034 4250 
Q 1547 4250 1301 3770 
Q 1056 3291 1056 2328 
Q 1056 1369 1301 889 
Q 1547 409 2034 409 
Q 2525 409 2770 889 
Q 3016 1369 3016 2328 
Q 3016 3291 2770 3770 
Q 2525 4250 2034 4250 
z
M 2034 4750 
Q 2819 4750 3233 4129 
Q 3647 3509 3647 2328 
Q 3647 1150 3233 529 
Q 2819 -91 2034 -91 
Q 1250 -91 836 529 
Q 422 1150 422 2328 
Q 422 3509 836 4129 
Q 1250 4750 2034 4750 
z
" transform="scale(0.015625)"/>
       </defs>
       <use xlink:href="#DejaVuSans-32" transform="translate(0 0.765625)"/>
       <use xlink:href="#DejaVuSans-30" transform="translate(64.580078 39.046875) scale(0.7)"/>
      </g>
     </g>
    </g>
    <g id="xtick_2">
     <g id="line2d_2">
      <g>
       <use xlink:href="#m9fcc0672a5" x="110.944943" y="288.430125" style="stroke: #000000; stroke-width: 0.8"/>
      </g>
     </g>
     <g id="text_2">
      <!-- $\mathdefault{2^{1}}$ -->
      <g transform="translate(105.344943 303.028562) scale(0.1 -0.1)">
       <defs>
        <path id="DejaVuSans-31" d="M 794 531 
L 1825 531 
L 1825 4091 
L 703 3866 
L 703 4441 
L 1819 4666 
L 2450 4666 
L 2450 531 
L 3481 531 
L 3481 0 
L 794 0 
L 794 531 
z
" transform="scale(0.015625)"/>
       </defs>
       <use xlink:href="#DejaVuSans-32" transform="translate(0 0.684375)"/>
       <use xlink:href="#DejaVuSans-31" transform="translate(64.580078 38.965625) scale(0.7)"/>
      </g>
     </g>
    </g>
    <g id="xtick_3">
     <g id="line2d_3">
      <g>
       <use xlink:href="#m9fcc0672a5" x="165.054034" y="288.430125" style="stroke: #000000; stroke-width: 0.8"/>
      </g>
     </g>
     <g id="text_3">
      <!-- $\mathdefault{2^{2}}$ -->
      <g transform="translate(159.454034 303.028562) scale(0.1 -0.1)">
       <use xlink:href="#DejaVuSans-32" transform="translate(0 0.765625)"/>
       <use xlink:href="#DejaVuSans-32" transform="translate(64.580078 39.046875) scale(0.7)"/>
      </g>
     </g>
    </g>
    <g id="xtick_4">
     <g id="line2d_4">
      <g>
       <use xlink:href="#m9fcc0672a5" x="219.163125" y="288.430125" style="stroke: #000000; stroke-width: 0.8"/>
      </g>
     </g>
     <g id="text_4">
      <!-- $\mathdefault{2^{3}}$ -->
      <g transform="translate(213.563125 303.028562) scale(0.1 -0.1)">
       <defs>
        <path id="DejaVuSans-33" d="M 2597 2516 
Q 3050 2419 3304 2112 
Q 3559 1806 3559 1356 
Q 3559 666 3084 287 
Q 2609 -91 1734 -91 
Q 1441 -91 1130 -33 
Q 819 25 488 141 
L 488 750 
Q 750 597 1062 519 
Q 1375 441 1716 441 
Q 2309 441 2620 675 
Q 2931 909 2931 1356 
Q 2931 1769 2642 2001 
Q 2353 2234 1838 2234 
L 1294 2234 
L 1294 2753 
L 1863 2753 
Q 2328 2753 2575 2939 
Q 2822 3125 2822 3475 
Q 2822 3834 2567 4026 
Q 2313 4219 1838 4219 
Q 1578 4219 1281 4162 
Q 984 4106 628 3988 
L 628 4550 
Q 988 4650 1302 4700 
Q 1616 4750 1894 4750 
Q 2613 4750 3031 4423 
Q 3450 4097 3450 3541 
Q 3450 3153 3228 2886 
Q 3006 2619 2597 2516 
z
" transform="scale(0.015625)"/>
       </defs>
       <use xlink:href="#DejaVuSans-32" transform="translate(0 0.765625)"/>
       <use xlink:href="#DejaVuSans-33" transform="translate(64.580078 39.046875) scale(0.7)"/>
      </g>
     </g>
    </g>
    <g id="xtick_5">
     <g id="line2d_5">
      <g>
       <use xlink:href="#m9fcc0672a5" x="273.272216" y="288.430125" style="stroke: #000000; stroke-width: 0.8"/>
      </g>
     </g>
     <g id="text_5">
      <!-- $\mathdefault{2^{4}}$ -->
      <g transform="translate(267.672216 303.028562) scale(0.1 -0.1)">
       <defs>
        <path id="DejaVuSans-34" d="M 2419 4116 
L 825 1625 
L 2419 1625 
L 2419 4116 
z
M 2253 4666 
L 3047 4666 
L 3047 1625 
L 3713 1625 
L 3713 1100 
L 3047 1100 
L 3047 0 
L 2419 0 
L 2419 1100 
L 313 1100 
L 313 1709 
L 2253 4666 
z
" transform="scale(0.015625)"/>
       </defs>
       <use xlink:href="#DejaVuSans-32" transform="translate(0 0.684375)"/>
       <use xlink:href="#DejaVuSans-34" transform="translate(64.580078 38.965625) scale(0.7)"/>
      </g>
     </g>
    </g>
    <g id="xtick_6">
     <g id="line2d_6">
      <g>
       <use xlink:href="#m9fcc0672a5" x="327.381307" y="288.430125" style="stroke: #000000; stroke-width: 0.8"/>
      </g>
     </g>
     <g id="text_6">
      <!-- $\mathdefault{2^{5}}$ -->
      <g transform="translate(321.781307 303.028562) scale(0.1 -0.1)">
       <defs>
        <path id="DejaVuSans-35" d="M 691 4666 
L 3169 4666 
L 3169 4134 
L 1269 4134 
L 1269 2991 
Q 1406 3038 1543 3061 
Q 1681 3084 1819 3084 
Q 2600 3084 3056 2656 
Q 3513 2228 3513 1497 
Q 3513 744 3044 326 
Q 2575 -91 1722 -91 
Q 1428 -91 1123 -41 
Q 819 9 494 109 
L 494 744 
Q 775 591 1075 516 
Q 1375 441 1709 441 
Q 2250 441 2565 725 
Q 2881 1009 2881 1497 
Q 2881 1984 2565 2268 
Q 2250 2553 1709 2553 
Q 1456 2553 1204 2497 
Q 953 2441 691 2322 
L 691 4666 
z
" transform="scale(0.015625)"/>
       </defs>
       <use xlink:href="#DejaVuSans-32" transform="translate(0 0.684375)"/>
       <use xlink:href="#DejaVuSans-35" transform="translate(64.580078 38.965625) scale(0.7)"/>
      </g>
     </g>
    </g>
    <g id="xtick_7">
     <g id="line2d_7">
      <g>
       <use xlink:href="#m9fcc0672a5" x="381.490398" y="288.430125" style="stroke: #000000; stroke-width: 0.8"/>
      </g>
     </g>
     <g id="text_7">
      <!-- $\mathdefault{2^{6}}$ -->
      <g transform="translate(375.890398 303.028562) scale(0.1 -0.1)">
       <defs>
        <path id="DejaVuSans-36" d="M 2113 2584 
Q 1688 2584 1439 2293 
Q 1191 2003 1191 1497 
Q 1191 994 1439 701 
Q 1688 409 2113 409 
Q 2538 409 2786 701 
Q 3034 994 3034 1497 
Q 3034 2003 2786 2293 
Q 2538 2584 2113 2584 
z
M 3366 4563 
L 3366 3988 
Q 3128 4100 2886 4159 
Q 2644 4219 2406 4219 
Q 1781 4219 1451 3797 
Q 1122 3375 1075 2522 
Q 1259 2794 1537 2939 
Q 1816 3084 2150 3084 
Q 2853 3084 3261 2657 
Q 3669 2231 3669 1497 
Q 3669 778 3244 343 
Q 2819 -91 2113 -91 
Q 1303 -91 875 529 
Q 447 1150 447 2328 
Q 447 3434 972 4092 
Q 1497 4750 2381 4750 
Q 2619 4750 2861 4703 
Q 3103 4656 3366 4563 
z
" transform="scale(0.015625)"/>
       </defs>
       <use xlink:href="#DejaVuSans-32" transform="translate(0 0.765625)"/>
       <use xlink:href="#DejaVuSans-36" transform="translate(64.580078 39.046875) scale(0.7)"/>
      </g>
     </g>
    </g>
    <g id="text_8">
     <!-- k -->
     <g transform="translate(216.267813 316.706687) scale(0.1 -0.1)">
      <defs>
       <path id="DejaVuSans-6b" d="M 581 4863 
L 1159 4863 
L 1159 1991 
L 2875 3500 
L 3609 3500 
L 1753 1863 
L 3688 0 
L 2938 0 
L 1159 1709 
L 1159 0 
L 581 0 
L 581 4863 
z
" transform="scale(0.015625)"/>
      </defs>
      <use xlink:href="#DejaVuSans-6b"/>
     </g>
    </g>
   </g>
   <g id="matplotlib.axis_2">
    <g id="ytick_1">
     <g id="line2d_8">
      <defs>
       <path id="m7021846878" d="M 0 0 
L -3.5 0 
" style="stroke: #000000; stroke-width: 0.8"/>
      </defs>
      <g>
       <use xlink:href="#m7021846878" x="40.603125" y="276.334125" style="stroke: #000000; stroke-width: 0.8"/>
      </g>
     </g>
     <g id="text_9">
      <!-- 0 -->
      <g transform="translate(27.240625 280.133344) scale(0.1 -0.1)">
       <use xlink:href="#DejaVuSans-30"/>
      </g>
     </g>
    </g>
    <g id="ytick_2">
     <g id="line2d_9">
      <g>
       <use xlink:href="#m7021846878" x="40.603125" y="233.134125" style="stroke: #000000; stroke-width: 0.8"/>
      </g>
     </g>
     <g id="text_10">
      <!-- 10 -->
      <g transform="translate(20.878125 236.933344) scale(0.1 -0.1)">
       <use xlink:href="#DejaVuSans-31"/>
       <use xlink:href="#DejaVuSans-30" x="63.623047"/>
      </g>
     </g>
    </g>
    <g id="ytick_3">
     <g id="line2d_10">
      <g>
       <use xlink:href="#m7021846878" x="40.603125" y="189.934125" style="stroke: #000000; stroke-width: 0.8"/>
      </g>
     </g>
     <g id="text_11">
      <!-- 20 -->
      <g transform="translate(20.878125 193.733344) scale(0.1 -0.1)">
       <use xlink:href="#DejaVuSans-32"/>
       <use xlink:href="#DejaVuSans-30" x="63.623047"/>
      </g>
     </g>
    </g>
    <g id="ytick_4">
     <g id="line2d_11">
      <g>
       <use xlink:href="#m7021846878" x="40.603125" y="146.734125" style="stroke: #000000; stroke-width: 0.8"/>
      </g>
     </g>
     <g id="text_12">
      <!-- 30 -->
      <g transform="translate(20.878125 150.533344) scale(0.1 -0.1)">
       <use xlink:href="#DejaVuSans-33"/>
       <use xlink:href="#DejaVuSans-30" x="63.623047"/>
      </g>
     </g>
    </g>
    <g id="ytick_5">
     <g id="line2d_12">
      <g>
       <use xlink:href="#m7021846878" x="40.603125" y="103.534125" style="stroke: #000000; stroke-width: 0.8"/>
      </g>
     </g>
     <g id="text_13">
      <!-- 40 -->
      <g transform="translate(20.878125 107.333344) scale(0.1 -0.1)">
       <use xlink:href="#DejaVuSans-34"/>
       <use xlink:href="#DejaVuSans-30" x="63.623047"/>
      </g>
     </g>
    </g>
    <g id="ytick_6">
     <g id="line2d_13">
      <g>
       <use xlink:href="#m7021846878" x="40.603125" y="60.334125" style="stroke: #000000; stroke-width: 0.8"/>
      </g>
     </g>
     <g id="text_14">
      <!-- 50 -->
      <g transform="translate(20.878125 64.133344) scale(0.1 -0.1)">
       <use xlink:href="#DejaVuSans-35"/>
       <use xlink:href="#DejaVuSans-30" x="63.623047"/>
      </g>
     </g>
    </g>
    <g id="text_15">
     <!-- param -->
     <g transform="translate(14.798438 171.60225) rotate(-90) scale(0.1 -0.1)">
      <defs>
       <path id="DejaVuSans-70" d="M 1159 525 
L 1159 -1331 
L 581 -1331 
L 581 3500 
L 1159 3500 
L 1159 2969 
Q 1341 3281 1617 3432 
Q 1894 3584 2278 3584 
Q 2916 3584 3314 3078 
Q 3713 2572 3713 1747 
Q 3713 922 3314 415 
Q 2916 -91 2278 -91 
Q 1894 -91 1617 61 
Q 1341 213 1159 525 
z
M 3116 1747 
Q 3116 2381 2855 2742 
Q 2594 3103 2138 3103 
Q 1681 3103 1420 2742 
Q 1159 2381 1159 1747 
Q 1159 1113 1420 752 
Q 1681 391 2138 391 
Q 2594 391 2855 752 
Q 3116 1113 3116 1747 
z
" transform="scale(0.015625)"/>
       <path id="DejaVuSans-61" d="M 2194 1759 
Q 1497 1759 1228 1600 
Q 959 1441 959 1056 
Q 959 750 1161 570 
Q 1363 391 1709 391 
Q 2188 391 2477 730 
Q 2766 1069 2766 1631 
L 2766 1759 
L 2194 1759 
z
M 3341 1997 
L 3341 0 
L 2766 0 
L 2766 531 
Q 2569 213 2275 61 
Q 1981 -91 1556 -91 
Q 1019 -91 701 211 
Q 384 513 384 1019 
Q 384 1609 779 1909 
Q 1175 2209 1959 2209 
L 2766 2209 
L 2766 2266 
Q 2766 2663 2505 2880 
Q 2244 3097 1772 3097 
Q 1472 3097 1187 3025 
Q 903 2953 641 2809 
L 641 3341 
Q 956 3463 1253 3523 
Q 1550 3584 1831 3584 
Q 2591 3584 2966 3190 
Q 3341 2797 3341 1997 
z
" transform="scale(0.015625)"/>
       <path id="DejaVuSans-72" d="M 2631 2963 
Q 2534 3019 2420 3045 
Q 2306 3072 2169 3072 
Q 1681 3072 1420 2755 
Q 1159 2438 1159 1844 
L 1159 0 
L 581 0 
L 581 3500 
L 1159 3500 
L 1159 2956 
Q 1341 3275 1631 3429 
Q 1922 3584 2338 3584 
Q 2397 3584 2469 3576 
Q 2541 3569 2628 3553 
L 2631 2963 
z
" transform="scale(0.015625)"/>
       <path id="DejaVuSans-6d" d="M 3328 2828 
Q 3544 3216 3844 3400 
Q 4144 3584 4550 3584 
Q 5097 3584 5394 3201 
Q 5691 2819 5691 2113 
L 5691 0 
L 5113 0 
L 5113 2094 
Q 5113 2597 4934 2840 
Q 4756 3084 4391 3084 
Q 3944 3084 3684 2787 
Q 3425 2491 3425 1978 
L 3425 0 
L 2847 0 
L 2847 2094 
Q 2847 2600 2669 2842 
Q 2491 3084 2119 3084 
Q 1678 3084 1418 2786 
Q 1159 2488 1159 1978 
L 1159 0 
L 581 0 
L 581 3500 
L 1159 3500 
L 1159 2956 
Q 1356 3278 1631 3431 
Q 1906 3584 2284 3584 
Q 2666 3584 2933 3390 
Q 3200 3197 3328 2828 
z
" transform="scale(0.015625)"/>
      </defs>
      <use xlink:href="#DejaVuSans-70"/>
      <use xlink:href="#DejaVuSans-61" x="63.476562"/>
      <use xlink:href="#DejaVuSans-72" x="124.755859"/>
      <use xlink:href="#DejaVuSans-61" x="165.869141"/>
      <use xlink:href="#DejaVuSans-6d" x="227.148438"/>
     </g>
    </g>
   </g>
   <g id="line2d_14">
    <path d="M 56.835852 276.334125 
L 110.944943 276.334125 
L 142.596732 276.334125 
L 165.054034 276.334125 
L 182.473271 276.334125 
L 196.705823 276.334125 
L 208.739275 276.334125 
L 219.163125 276.334125 
L 228.357612 276.334125 
L 236.582362 276.334125 
L 244.022552 276.334125 
L 250.814914 276.334125 
L 257.063281 276.334125 
L 262.848366 276.334125 
L 268.234151 276.334125 
L 273.272216 276.334125 
L 278.004751 276.334125 
L 282.466703 276.334125 
L 286.687348 276.334125 
L 290.691452 276.334125 
L 294.500155 276.334125 
L 298.131643 276.334125 
L 301.601677 276.334125 
L 304.924005 276.334125 
L 311.172372 276.334125 
L 316.957457 276.334125 
L 322.343242 276.334125 
L 327.381307 276.334125 
L 332.113842 276.334125 
L 336.575794 276.334125 
L 340.796439 276.334125 
L 344.800543 276.334125 
L 348.609246 276.334125 
L 352.240734 276.334125 
L 355.710768 276.334125 
L 359.033096 276.334125 
L 365.281463 276.334125 
L 371.066548 276.334125 
L 376.452333 276.334125 
L 381.490398 276.334125 
" clip-path="url(#pfd79b26cd0)" style="fill: none; stroke: #1f77b4; stroke-width: 0.75; stroke-linecap: square"/>
   </g>
   <g id="line2d_15">
    <path d="M 56.835852 276.334125 
L 110.944943 276.334125 
L 142.596732 276.334125 
L 165.054034 276.334125 
L 182.473271 276.334125 
L 196.705823 276.334125 
L 208.739275 276.334125 
L 219.163125 276.334125 
L 228.357612 276.334125 
L 236.582362 276.334125 
L 244.022552 276.334125 
L 250.814914 276.334125 
L 257.063281 276.334125 
L 262.848366 276.334125 
L 268.234151 276.334125 
L 273.272216 276.334125 
L 278.004751 276.334125 
L 282.466703 276.334125 
L 286.687348 276.334125 
L 290.691452 276.334125 
L 294.500155 276.334125 
L 298.131643 276.334125 
L 301.601677 276.334125 
L 304.924005 276.334125 
L 311.172372 276.334125 
L 316.957457 276.334125 
L 322.343242 276.334125 
L 327.381307 276.334125 
L 332.113842 276.334125 
L 336.575794 276.334125 
L 340.796439 276.334125 
L 344.800543 276.334125 
L 348.609246 276.334125 
L 352.240734 276.334125 
L 355.710768 276.334125 
L 359.033096 276.334125 
L 365.281463 276.334125 
L 371.066548 276.334125 
L 376.452333 276.334125 
L 381.490398 276.334125 
" clip-path="url(#pfd79b26cd0)" style="fill: none; stroke: #1f77b4; stroke-width: 1.5; stroke-linecap: square"/>
   </g>
   <g id="line2d_16">
    <path d="M 56.835852 276.334125 
L 110.944943 276.334125 
L 142.596732 276.334125 
L 165.054034 276.334125 
L 182.473271 276.334125 
L 196.705823 276.334125 
L 208.739275 276.334125 
L 219.163125 276.334125 
L 228.357612 276.334125 
L 236.582362 276.334125 
L 244.022552 276.334125 
L 250.814914 276.334125 
L 257.063281 276.334125 
L 262.848366 276.334125 
L 268.234151 276.334125 
L 273.272216 276.334125 
L 278.004751 276.334125 
L 282.466703 276.334125 
L 286.687348 276.334125 
L 290.691452 276.334125 
L 294.500155 276.334125 
L 298.131643 276.334125 
L 301.601677 276.334125 
L 304.924005 276.334125 
L 311.172372 276.334125 
L 316.957457 276.334125 
L 322.343242 276.334125 
L 327.381307 276.334125 
L 332.113842 276.334125 
L 336.575794 276.334125 
L 340.796439 276.334125 
L 344.800543 276.334125 
L 348.609246 276.334125 
L 352.240734 276.334125 
L 355.710768 276.334125 
L 359.033096 276.334125 
L 365.281463 276.334125 
L 371.066548 276.334125 
L 376.452333 276.334125 
L 381.490398 276.334125 
" clip-path="url(#pfd79b26cd0)" style="fill: none; stroke: #1f77b4; stroke-width: 3; stroke-linecap: square"/>
   </g>
   <g id="line2d_17">
    <path d="M 56.835852 272.014125 
L 110.944943 267.694125 
L 142.596732 272.014125 
L 165.054034 272.014125 
L 182.473271 272.014125 
L 196.705823 272.014125 
L 208.739275 272.014125 
L 219.163125 272.014125 
L 228.357612 272.014125 
L 236.582362 267.694125 
L 244.022552 263.374125 
L 250.814914 259.054125 
L 257.063281 254.734125 
L 262.848366 250.414125 
L 268.234151 246.094125 
L 273.272216 241.774125 
L 278.004751 237.454125 
L 282.466703 233.134125 
L 286.687348 228.814125 
L 290.691452 224.494125 
L 294.500155 220.174125 
L 298.131643 215.854125 
L 301.601677 211.534125 
L 304.924005 207.214125 
L 311.172372 198.574125 
L 316.957457 189.934125 
L 322.343242 181.294125 
L 327.381307 172.654125 
L 332.113842 164.014125 
L 336.575794 155.374125 
L 340.796439 146.734125 
L 344.800543 138.094125 
L 348.609246 129.454125 
L 352.240734 120.814125 
L 355.710768 112.174125 
L 359.033096 103.534125 
L 365.281463 86.254125 
L 371.066548 68.974125 
L 376.452333 51.694125 
L 381.490398 34.414125 
" clip-path="url(#pfd79b26cd0)" style="fill: none; stroke: #ff7f0e; stroke-width: 0.75; stroke-linecap: square"/>
   </g>
   <g id="line2d_18">
    <path d="M 56.835852 272.014125 
L 110.944943 267.694125 
L 142.596732 272.014125 
L 165.054034 272.014125 
L 182.473271 272.014125 
L 196.705823 272.014125 
L 208.739275 272.014125 
L 219.163125 272.014125 
L 228.357612 272.014125 
L 236.582362 272.014125 
L 244.022552 272.014125 
L 250.814914 272.014125 
L 257.063281 272.014125 
L 262.848366 272.014125 
L 268.234151 272.014125 
L 273.272216 272.014125 
L 278.004751 272.014125 
L 282.466703 267.694125 
L 286.687348 263.374125 
L 290.691452 259.054125 
L 294.500155 254.734125 
L 298.131643 250.414125 
L 301.601677 246.094125 
L 304.924005 241.774125 
L 311.172372 233.134125 
L 316.957457 224.494125 
L 322.343242 215.854125 
L 327.381307 207.214125 
L 332.113842 198.574125 
L 336.575794 189.934125 
L 340.796439 181.294125 
L 344.800543 172.654125 
L 348.609246 164.014125 
L 352.240734 155.374125 
L 355.710768 146.734125 
L 359.033096 138.094125 
L 365.281463 120.814125 
L 371.066548 103.534125 
L 376.452333 86.254125 
L 381.490398 68.974125 
" clip-path="url(#pfd79b26cd0)" style="fill: none; stroke: #ff7f0e; stroke-width: 1.5; stroke-linecap: square"/>
   </g>
   <g id="line2d_19">
    <path d="M 56.835852 272.014125 
L 110.944943 267.694125 
L 142.596732 272.014125 
L 165.054034 272.014125 
L 182.473271 272.014125 
L 196.705823 272.014125 
L 208.739275 272.014125 
L 219.163125 272.014125 
L 228.357612 272.014125 
L 236.582362 272.014125 
L 244.022552 272.014125 
L 250.814914 272.014125 
L 257.063281 272.014125 
L 262.848366 272.014125 
L 268.234151 272.014125 
L 273.272216 272.014125 
L 278.004751 272.014125 
L 282.466703 267.694125 
L 286.687348 263.374125 
L 290.691452 272.014125 
L 294.500155 272.014125 
L 298.131643 272.014125 
L 301.601677 272.014125 
L 304.924005 272.014125 
L 311.172372 272.014125 
L 316.957457 272.014125 
L 322.343242 272.014125 
L 327.381307 272.014125 
L 332.113842 267.694125 
L 336.575794 259.054125 
L 340.796439 250.414125 
L 344.800543 241.774125 
L 348.609246 233.134125 
L 352.240734 224.494125 
L 355.710768 215.854125 
L 359.033096 207.214125 
L 365.281463 189.934125 
L 371.066548 172.654125 
L 376.452333 155.374125 
L 381.490398 138.094125 
" clip-path="url(#pfd79b26cd0)" style="fill: none; stroke: #ff7f0e; stroke-width: 3; stroke-linecap: square"/>
   </g>
   <g id="line2d_20">
    <path d="M 56.835852 272.014125 
L 110.944943 272.014125 
L 142.596732 272.014125 
L 165.054034 267.694125 
L 182.473271 263.374125 
L 196.705823 259.054125 
L 208.739275 272.014125 
L 219.163125 272.014125 
L 228.357612 272.014125 
L 236.582362 267.694125 
L 244.022552 263.374125 
L 250.814914 259.054125 
L 257.063281 254.734125 
L 262.848366 250.414125 
L 268.234151 246.094125 
L 273.272216 241.774125 
L 278.004751 237.454125 
L 282.466703 233.134125 
L 286.687348 228.814125 
L 290.691452 224.494125 
L 294.500155 220.174125 
L 298.131643 215.854125 
L 301.601677 211.534125 
L 304.924005 207.214125 
L 311.172372 198.574125 
L 316.957457 189.934125 
L 322.343242 181.294125 
L 327.381307 172.654125 
L 332.113842 164.014125 
L 336.575794 155.374125 
L 340.796439 146.734125 
L 344.800543 138.094125 
L 348.609246 129.454125 
L 352.240734 120.814125 
L 355.710768 112.174125 
L 359.033096 103.534125 
L 365.281463 86.254125 
L 371.066548 68.974125 
L 376.452333 51.694125 
L 381.490398 34.414125 
" clip-path="url(#pfd79b26cd0)" style="fill: none; stroke: #2ca02c; stroke-width: 0.75; stroke-linecap: square"/>
   </g>
   <g id="line2d_21">
    <path d="M 56.835852 272.014125 
L 110.944943 272.014125 
L 142.596732 272.014125 
L 165.054034 272.014125 
L 182.473271 272.014125 
L 196.705823 267.694125 
L 208.739275 263.374125 
L 219.163125 259.054125 
L 228.357612 254.734125 
L 236.582362 250.414125 
L 244.022552 246.094125 
L 250.814914 272.014125 
L 257.063281 272.014125 
L 262.848366 272.014125 
L 268.234151 272.014125 
L 273.272216 272.014125 
L 278.004751 272.014125 
L 282.466703 267.694125 
L 286.687348 263.374125 
L 290.691452 259.054125 
L 294.500155 254.734125 
L 298.131643 250.414125 
L 301.601677 246.094125 
L 304.924005 241.774125 
L 311.172372 233.134125 
L 316.957457 224.494125 
L 322.343242 215.854125 
L 327.381307 207.214125 
L 332.113842 198.574125 
L 336.575794 189.934125 
L 340.796439 181.294125 
L 344.800543 172.654125 
L 348.609246 164.014125 
L 352.240734 155.374125 
L 355.710768 146.734125 
L 359.033096 138.094125 
L 365.281463 120.814125 
L 371.066548 103.534125 
L 376.452333 86.254125 
L 381.490398 68.974125 
" clip-path="url(#pfd79b26cd0)" style="fill: none; stroke: #2ca02c; stroke-width: 1.5; stroke-linecap: square"/>
   </g>
   <g id="line2d_22">
    <path d="M 56.835852 272.014125 
L 110.944943 272.014125 
L 142.596732 272.014125 
L 165.054034 272.014125 
L 182.473271 272.014125 
L 196.705823 272.014125 
L 208.739275 272.014125 
L 219.163125 267.694125 
L 228.357612 267.694125 
L 236.582362 267.694125 
L 244.022552 267.694125 
L 250.814914 263.374125 
L 257.063281 254.734125 
L 262.848366 250.414125 
L 268.234151 250.414125 
L 273.272216 246.094125 
L 278.004751 237.454125 
L 282.466703 237.454125 
L 286.687348 233.134125 
L 290.691452 233.134125 
L 294.500155 233.134125 
L 298.131643 272.014125 
L 301.601677 272.014125 
L 304.924005 272.014125 
L 311.172372 272.014125 
L 316.957457 272.014125 
L 322.343242 267.694125 
L 327.381307 267.694125 
L 332.113842 267.694125 
L 336.575794 259.054125 
L 340.796439 250.414125 
L 344.800543 241.774125 
L 348.609246 233.134125 
L 352.240734 224.494125 
L 355.710768 215.854125 
L 359.033096 207.214125 
L 365.281463 189.934125 
L 371.066548 172.654125 
L 376.452333 155.374125 
L 381.490398 138.094125 
" clip-path="url(#pfd79b26cd0)" style="fill: none; stroke: #2ca02c; stroke-width: 3; stroke-linecap: square"/>
   </g>
   <g id="line2d_23">
    <path d="M 56.835852 272.014125 
L 110.944943 267.694125 
L 142.596732 263.374125 
L 165.054034 259.054125 
L 182.473271 254.734125 
L 196.705823 272.014125 
L 208.739275 272.014125 
L 219.163125 272.014125 
L 228.357612 272.014125 
L 236.582362 267.694125 
L 244.022552 263.374125 
L 250.814914 259.054125 
L 257.063281 254.734125 
L 262.848366 250.414125 
L 268.234151 246.094125 
L 273.272216 241.774125 
L 278.004751 237.454125 
L 282.466703 233.134125 
L 286.687348 228.814125 
L 290.691452 224.494125 
L 294.500155 220.174125 
L 298.131643 215.854125 
L 301.601677 211.534125 
L 304.924005 207.214125 
L 311.172372 198.574125 
L 316.957457 189.934125 
L 322.343242 181.294125 
L 327.381307 172.654125 
L 332.113842 164.014125 
L 336.575794 155.374125 
L 340.796439 146.734125 
L 344.800543 138.094125 
L 348.609246 129.454125 
L 352.240734 120.814125 
L 355.710768 112.174125 
L 359.033096 103.534125 
L 365.281463 86.254125 
L 371.066548 68.974125 
L 376.452333 51.694125 
L 381.490398 34.414125 
" clip-path="url(#pfd79b26cd0)" style="fill: none; stroke: #d62728; stroke-width: 0.75; stroke-linecap: square"/>
   </g>
   <g id="line2d_24">
    <path d="M 56.835852 272.014125 
L 110.944943 267.694125 
L 142.596732 263.374125 
L 165.054034 259.054125 
L 182.473271 254.734125 
L 196.705823 250.414125 
L 208.739275 246.094125 
L 219.163125 241.774125 
L 228.357612 237.454125 
L 236.582362 272.014125 
L 244.022552 272.014125 
L 250.814914 272.014125 
L 257.063281 272.014125 
L 262.848366 272.014125 
L 268.234151 272.014125 
L 273.272216 272.014125 
L 278.004751 272.014125 
L 282.466703 267.694125 
L 286.687348 263.374125 
L 290.691452 259.054125 
L 294.500155 254.734125 
L 298.131643 250.414125 
L 301.601677 246.094125 
L 304.924005 241.774125 
L 311.172372 233.134125 
L 316.957457 224.494125 
L 322.343242 215.854125 
L 327.381307 207.214125 
L 332.113842 198.574125 
L 336.575794 189.934125 
L 340.796439 181.294125 
L 344.800543 172.654125 
L 348.609246 164.014125 
L 352.240734 155.374125 
L 355.710768 146.734125 
L 359.033096 138.094125 
L 365.281463 120.814125 
L 371.066548 103.534125 
L 376.452333 86.254125 
L 381.490398 68.974125 
" clip-path="url(#pfd79b26cd0)" style="fill: none; stroke: #d62728; stroke-width: 1.5; stroke-linecap: square"/>
   </g>
   <g id="line2d_25">
    <path d="M 56.835852 272.014125 
L 110.944943 267.694125 
L 142.596732 263.374125 
L 165.054034 259.054125 
L 182.473271 254.734125 
L 196.705823 250.414125 
L 208.739275 246.094125 
L 219.163125 241.774125 
L 228.357612 237.454125 
L 236.582362 233.134125 
L 244.022552 228.814125 
L 250.814914 224.494125 
L 257.063281 220.174125 
L 262.848366 215.854125 
L 268.234151 211.534125 
L 273.272216 207.214125 
L 278.004751 202.894125 
L 282.466703 272.014125 
L 286.687348 272.014125 
L 290.691452 272.014125 
L 294.500155 272.014125 
L 298.131643 272.014125 
L 301.601677 272.014125 
L 304.924005 272.014125 
L 311.172372 272.014125 
L 316.957457 272.014125 
L 322.343242 272.014125 
L 327.381307 272.014125 
L 332.113842 267.694125 
L 336.575794 259.054125 
L 340.796439 250.414125 
L 344.800543 241.774125 
L 348.609246 233.134125 
L 352.240734 224.494125 
L 355.710768 215.854125 
L 359.033096 207.214125 
L 365.281463 189.934125 
L 371.066548 172.654125 
L 376.452333 155.374125 
L 381.490398 138.094125 
" clip-path="url(#pfd79b26cd0)" style="fill: none; stroke: #d62728; stroke-width: 3; stroke-linecap: square"/>
   </g>
   <g id="line2d_26">
    <path d="M 56.835852 272.014125 
L 110.944943 267.694125 
L 142.596732 263.374125 
L 165.054034 259.054125 
L 182.473271 254.734125 
L 196.705823 272.014125 
L 208.739275 272.014125 
L 219.163125 272.014125 
L 228.357612 272.014125 
L 236.582362 267.694125 
L 244.022552 263.374125 
L 250.814914 259.054125 
L 257.063281 254.734125 
L 262.848366 250.414125 
L 268.234151 272.014125 
L 273.272216 272.014125 
L 278.004751 272.014125 
L 282.466703 267.694125 
L 286.687348 263.374125 
L 290.691452 259.054125 
L 294.500155 254.734125 
L 298.131643 250.414125 
L 301.601677 272.014125 
L 304.924005 272.014125 
L 311.172372 267.694125 
L 316.957457 259.054125 
L 322.343242 250.414125 
L 327.381307 272.014125 
L 332.113842 267.694125 
L 336.575794 259.054125 
L 340.796439 250.414125 
L 344.800543 272.014125 
L 348.609246 267.694125 
L 352.240734 259.054125 
L 355.710768 250.414125 
L 359.033096 272.014125 
L 365.281463 259.054125 
L 371.066548 272.014125 
L 376.452333 259.054125 
L 381.490398 272.014125 
" clip-path="url(#pfd79b26cd0)" style="fill: none; stroke: #9467bd; stroke-width: 0.75; stroke-linecap: square"/>
   </g>
   <g id="line2d_27">
    <path d="M 56.835852 272.014125 
L 110.944943 267.694125 
L 142.596732 263.374125 
L 165.054034 259.054125 
L 182.473271 254.734125 
L 196.705823 250.414125 
L 208.739275 246.094125 
L 219.163125 241.774125 
L 228.357612 237.454125 
L 236.582362 272.014125 
L 244.022552 272.014125 
L 250.814914 272.014125 
L 257.063281 272.014125 
L 262.848366 272.014125 
L 268.234151 272.014125 
L 273.272216 272.014125 
L 278.004751 272.014125 
L 282.466703 267.694125 
L 286.687348 263.374125 
L 290.691452 259.054125 
L 294.500155 254.734125 
L 298.131643 250.414125 
L 301.601677 246.094125 
L 304.924005 241.774125 
L 311.172372 233.134125 
L 316.957457 272.014125 
L 322.343242 272.014125 
L 327.381307 272.014125 
L 332.113842 267.694125 
L 336.575794 259.054125 
L 340.796439 250.414125 
L 344.800543 241.774125 
L 348.609246 233.134125 
L 352.240734 224.494125 
L 355.710768 272.014125 
L 359.033096 272.014125 
L 365.281463 259.054125 
L 371.066548 241.774125 
L 376.452333 224.494125 
L 381.490398 272.014125 
" clip-path="url(#pfd79b26cd0)" style="fill: none; stroke: #9467bd; stroke-width: 1.5; stroke-linecap: square"/>
   </g>
   <g id="line2d_28">
    <path d="M 56.835852 272.014125 
L 110.944943 267.694125 
L 142.596732 263.374125 
L 165.054034 259.054125 
L 182.473271 254.734125 
L 196.705823 250.414125 
L 208.739275 246.094125 
L 219.163125 241.774125 
L 228.357612 237.454125 
L 236.582362 233.134125 
L 244.022552 228.814125 
L 250.814914 224.494125 
L 257.063281 220.174125 
L 262.848366 215.854125 
L 268.234151 211.534125 
L 273.272216 207.214125 
L 278.004751 202.894125 
L 282.466703 272.014125 
L 286.687348 272.014125 
L 290.691452 272.014125 
L 294.500155 272.014125 
L 298.131643 272.014125 
L 301.601677 272.014125 
L 304.924005 272.014125 
L 311.172372 272.014125 
L 316.957457 272.014125 
L 322.343242 272.014125 
L 327.381307 272.014125 
L 332.113842 267.694125 
L 336.575794 259.054125 
L 340.796439 250.414125 
L 344.800543 241.774125 
L 348.609246 233.134125 
L 352.240734 224.494125 
L 355.710768 215.854125 
L 359.033096 207.214125 
L 365.281463 189.934125 
L 371.066548 272.014125 
L 376.452333 272.014125 
L 381.490398 272.014125 
" clip-path="url(#pfd79b26cd0)" style="fill: none; stroke: #9467bd; stroke-width: 3; stroke-linecap: square"/>
   </g>
   <g id="line2d_29">
    <path d="M 56.835852 276.334125 
L 110.944943 276.334125 
L 142.596732 276.334125 
L 165.054034 276.334125 
L 182.473271 276.334125 
L 196.705823 276.334125 
L 208.739275 276.334125 
L 219.163125 276.334125 
L 228.357612 276.334125 
L 236.582362 276.334125 
L 244.022552 276.334125 
L 250.814914 276.334125 
L 257.063281 276.334125 
L 262.848366 276.334125 
L 268.234151 276.334125 
L 273.272216 276.334125 
L 278.004751 276.334125 
L 282.466703 276.334125 
L 286.687348 276.334125 
L 290.691452 276.334125 
L 294.500155 276.334125 
L 298.131643 276.334125 
L 301.601677 276.334125 
L 304.924005 276.334125 
L 311.172372 276.334125 
L 316.957457 276.334125 
L 322.343242 276.334125 
L 327.381307 276.334125 
L 332.113842 276.334125 
L 336.575794 276.334125 
L 340.796439 276.334125 
L 344.800543 276.334125 
L 348.609246 276.334125 
L 352.240734 276.334125 
L 355.710768 276.334125 
L 359.033096 276.334125 
L 365.281463 276.334125 
L 371.066548 276.334125 
L 376.452333 276.334125 
L 381.490398 276.334125 
" clip-path="url(#pfd79b26cd0)" style="fill: none; stroke: #8c564b; stroke-width: 0.75; stroke-linecap: square"/>
   </g>
   <g id="line2d_30">
    <path d="M 56.835852 276.334125 
L 110.944943 276.334125 
L 142.596732 276.334125 
L 165.054034 276.334125 
L 182.473271 276.334125 
L 196.705823 276.334125 
L 208.739275 276.334125 
L 219.163125 276.334125 
L 228.357612 276.334125 
L 236.582362 276.334125 
L 244.022552 276.334125 
L 250.814914 276.334125 
L 257.063281 276.334125 
L 262.848366 276.334125 
L 268.234151 276.334125 
L 273.272216 276.334125 
L 278.004751 276.334125 
L 282.466703 276.334125 
L 286.687348 276.334125 
L 290.691452 276.334125 
L 294.500155 276.334125 
L 298.131643 276.334125 
L 301.601677 276.334125 
L 304.924005 276.334125 
L 311.172372 276.334125 
L 316.957457 276.334125 
L 322.343242 276.334125 
L 327.381307 276.334125 
L 332.113842 276.334125 
L 336.575794 276.334125 
L 340.796439 276.334125 
L 344.800543 276.334125 
L 348.609246 276.334125 
L 352.240734 276.334125 
L 355.710768 276.334125 
L 359.033096 276.334125 
L 365.281463 276.334125 
L 371.066548 276.334125 
L 376.452333 276.334125 
L 381.490398 276.334125 
" clip-path="url(#pfd79b26cd0)" style="fill: none; stroke: #8c564b; stroke-width: 1.5; stroke-linecap: square"/>
   </g>
   <g id="line2d_31">
    <path d="M 56.835852 276.334125 
L 110.944943 276.334125 
L 142.596732 276.334125 
L 165.054034 276.334125 
L 182.473271 276.334125 
L 196.705823 276.334125 
L 208.739275 276.334125 
L 219.163125 276.334125 
L 228.357612 276.334125 
L 236.582362 276.334125 
L 244.022552 276.334125 
L 250.814914 276.334125 
L 257.063281 276.334125 
L 262.848366 276.334125 
L 268.234151 276.334125 
L 273.272216 276.334125 
L 278.004751 276.334125 
L 282.466703 276.334125 
L 286.687348 276.334125 
L 290.691452 276.334125 
L 294.500155 276.334125 
L 298.131643 276.334125 
L 301.601677 276.334125 
L 304.924005 276.334125 
L 311.172372 276.334125 
L 316.957457 276.334125 
L 322.343242 276.334125 
L 327.381307 276.334125 
L 332.113842 276.334125 
L 336.575794 276.334125 
L 340.796439 276.334125 
L 344.800543 276.334125 
L 348.609246 276.334125 
L 352.240734 276.334125 
L 355.710768 276.334125 
L 359.033096 276.334125 
L 365.281463 276.334125 
L 371.066548 276.334125 
L 376.452333 276.334125 
L 381.490398 276.334125 
" clip-path="url(#pfd79b26cd0)" style="fill: none; stroke: #8c564b; stroke-width: 3; stroke-linecap: square"/>
   </g>
   <g id="line2d_32">
    <path d="M 56.835852 276.334125 
L 110.944943 276.334125 
L 142.596732 276.334125 
L 165.054034 276.334125 
L 182.473271 276.334125 
L 196.705823 276.334125 
L 208.739275 276.334125 
L 219.163125 276.334125 
L 228.357612 276.334125 
L 236.582362 276.334125 
L 244.022552 276.334125 
L 250.814914 276.334125 
L 257.063281 276.334125 
L 262.848366 276.334125 
L 268.234151 276.334125 
L 273.272216 276.334125 
L 278.004751 276.334125 
L 282.466703 276.334125 
L 286.687348 276.334125 
L 290.691452 276.334125 
L 294.500155 276.334125 
L 298.131643 276.334125 
L 301.601677 276.334125 
L 304.924005 276.334125 
L 311.172372 276.334125 
L 316.957457 276.334125 
L 322.343242 276.334125 
L 327.381307 276.334125 
L 332.113842 276.334125 
L 336.575794 276.334125 
L 340.796439 276.334125 
L 344.800543 276.334125 
L 348.609246 276.334125 
L 352.240734 276.334125 
L 355.710768 276.334125 
L 359.033096 276.334125 
L 365.281463 276.334125 
L 371.066548 276.334125 
L 376.452333 276.334125 
L 381.490398 276.334125 
" clip-path="url(#pfd79b26cd0)" style="fill: none; stroke: #e377c2; stroke-width: 0.75; stroke-linecap: square"/>
   </g>
   <g id="line2d_33">
    <path d="M 56.835852 276.334125 
L 110.944943 276.334125 
L 142.596732 276.334125 
L 165.054034 276.334125 
L 182.473271 276.334125 
L 196.705823 276.334125 
L 208.739275 276.334125 
L 219.163125 276.334125 
L 228.357612 276.334125 
L 236.582362 276.334125 
L 244.022552 276.334125 
L 250.814914 276.334125 
L 257.063281 276.334125 
L 262.848366 276.334125 
L 268.234151 276.334125 
L 273.272216 276.334125 
L 278.004751 276.334125 
L 282.466703 276.334125 
L 286.687348 276.334125 
L 290.691452 276.334125 
L 294.500155 276.334125 
L 298.131643 276.334125 
L 301.601677 276.334125 
L 304.924005 276.334125 
L 311.172372 276.334125 
L 316.957457 276.334125 
L 322.343242 276.334125 
L 327.381307 276.334125 
L 332.113842 276.334125 
L 336.575794 276.334125 
L 340.796439 276.334125 
L 344.800543 276.334125 
L 348.609246 276.334125 
L 352.240734 276.334125 
L 355.710768 276.334125 
L 359.033096 276.334125 
L 365.281463 276.334125 
L 371.066548 276.334125 
L 376.452333 276.334125 
L 381.490398 276.334125 
" clip-path="url(#pfd79b26cd0)" style="fill: none; stroke: #e377c2; stroke-width: 1.5; stroke-linecap: square"/>
   </g>
   <g id="line2d_34">
    <path d="M 56.835852 276.334125 
L 110.944943 276.334125 
L 142.596732 276.334125 
L 165.054034 276.334125 
L 182.473271 276.334125 
L 196.705823 276.334125 
L 208.739275 276.334125 
L 219.163125 276.334125 
L 228.357612 276.334125 
L 236.582362 276.334125 
L 244.022552 276.334125 
L 250.814914 276.334125 
L 257.063281 276.334125 
L 262.848366 276.334125 
L 268.234151 276.334125 
L 273.272216 276.334125 
L 278.004751 276.334125 
L 282.466703 276.334125 
L 286.687348 276.334125 
L 290.691452 276.334125 
L 294.500155 276.334125 
L 298.131643 276.334125 
L 301.601677 276.334125 
L 304.924005 276.334125 
L 311.172372 276.334125 
L 316.957457 276.334125 
L 322.343242 276.334125 
L 327.381307 276.334125 
L 332.113842 276.334125 
L 336.575794 276.334125 
L 340.796439 276.334125 
L 344.800543 276.334125 
L 348.609246 276.334125 
L 352.240734 276.334125 
L 355.710768 276.334125 
L 359.033096 276.334125 
L 365.281463 276.334125 
L 371.066548 276.334125 
L 376.452333 276.334125 
L 381.490398 276.334125 
" clip-path="url(#pfd79b26cd0)" style="fill: none; stroke: #e377c2; stroke-width: 3; stroke-linecap: square"/>
   </g>
   <g id="line2d_35">
    <path d="M 228.357612 276.334125 
L 236.582362 276.334125 
L 244.022552 276.334125 
L 250.814914 276.334125 
L 257.063281 276.334125 
L 262.848366 276.334125 
L 268.234151 276.334125 
L 273.272216 276.334125 
L 278.004751 276.334125 
L 282.466703 276.334125 
L 286.687348 276.334125 
L 290.691452 276.334125 
L 294.500155 276.334125 
L 298.131643 276.334125 
L 301.601677 276.334125 
L 304.924005 276.334125 
L 311.172372 276.334125 
L 316.957457 276.334125 
L 322.343242 276.334125 
L 327.381307 276.334125 
L 332.113842 276.334125 
L 336.575794 276.334125 
L 340.796439 276.334125 
L 344.800543 276.334125 
L 348.609246 276.334125 
L 352.240734 276.334125 
L 355.710768 276.334125 
L 359.033096 276.334125 
L 365.281463 276.334125 
L 371.066548 276.334125 
L 376.452333 276.334125 
L 381.490398 276.334125 
" clip-path="url(#pfd79b26cd0)" style="fill: none; stroke: #7f7f7f; stroke-width: 0.75; stroke-linecap: square"/>
   </g>
   <g id="line2d_36">
    <path d="M 278.004751 276.334125 
L 282.466703 276.334125 
L 286.687348 276.334125 
L 290.691452 276.334125 
L 294.500155 276.334125 
L 298.131643 276.334125 
L 301.601677 276.334125 
L 304.924005 276.334125 
L 311.172372 276.334125 
L 316.957457 276.334125 
L 322.343242 276.334125 
L 327.381307 276.334125 
L 332.113842 276.334125 
L 336.575794 276.334125 
L 340.796439 276.334125 
L 344.800543 276.334125 
L 348.609246 276.334125 
L 352.240734 276.334125 
L 355.710768 276.334125 
L 359.033096 276.334125 
L 365.281463 276.334125 
L 371.066548 276.334125 
L 376.452333 276.334125 
L 381.490398 276.334125 
" clip-path="url(#pfd79b26cd0)" style="fill: none; stroke: #7f7f7f; stroke-width: 1.5; stroke-linecap: square"/>
   </g>
   <g id="line2d_37">
    <path d="M 332.113842 276.334125 
L 336.575794 276.334125 
L 340.796439 276.334125 
L 344.800543 276.334125 
L 348.609246 276.334125 
L 352.240734 276.334125 
L 355.710768 276.334125 
L 359.033096 276.334125 
L 365.281463 276.334125 
L 371.066548 276.334125 
L 376.452333 276.334125 
L 381.490398 276.334125 
" clip-path="url(#pfd79b26cd0)" style="fill: none; stroke: #7f7f7f; stroke-width: 3; stroke-linecap: square"/>
   </g>
   <g id="line2d_38"/>
   <g id="line2d_39"/>
   <g id="line2d_40"/>
   <g id="line2d_41"/>
   <g id="line2d_42"/>
   <g id="line2d_43"/>
   <g id="line2d_44"/>
   <g id="line2d_45"/>
   <g id="line2d_46"/>
   <g id="line2d_47"/>
   <g id="line2d_48"/>
   <g id="patch_3">
    <path d="M 40.603125 288.430125 
L 40.603125 22.318125 
" style="fill: none; stroke: #000000; stroke-width: 0.8; stroke-linejoin: miter; stroke-linecap: square"/>
   </g>
   <g id="patch_4">
    <path d="M 397.723125 288.430125 
L 397.723125 22.318125 
" style="fill: none; stroke: #000000; stroke-width: 0.8; stroke-linejoin: miter; stroke-linecap: square"/>
   </g>
   <g id="patch_5">
    <path d="M 40.603125 288.430125 
L 397.723125 288.430125 
" style="fill: none; stroke: #000000; stroke-width: 0.8; stroke-linejoin: miter; stroke-linecap: square"/>
   </g>
   <g id="patch_6">
    <path d="M 40.603125 22.318125 
L 397.723125 22.318125 
" style="fill: none; stroke: #000000; stroke-width: 0.8; stroke-linejoin: miter; stroke-linecap: square"/>
   </g>
   <g id="text_16">
    <!-- Optimal parameter k0 or r -->
    <g transform="translate(140.22375 16.318125) scale(0.12 -0.12)">
     <defs>
      <path id="DejaVuSans-4f" d="M 2522 4238 
Q 1834 4238 1429 3725 
Q 1025 3213 1025 2328 
Q 1025 1447 1429 934 
Q 1834 422 2522 422 
Q 3209 422 3611 934 
Q 4013 1447 4013 2328 
Q 4013 3213 3611 3725 
Q 3209 4238 2522 4238 
z
M 2522 4750 
Q 3503 4750 4090 4092 
Q 4678 3434 4678 2328 
Q 4678 1225 4090 567 
Q 3503 -91 2522 -91 
Q 1538 -91 948 565 
Q 359 1222 359 2328 
Q 359 3434 948 4092 
Q 1538 4750 2522 4750 
z
" transform="scale(0.015625)"/>
      <path id="DejaVuSans-74" d="M 1172 4494 
L 1172 3500 
L 2356 3500 
L 2356 3053 
L 1172 3053 
L 1172 1153 
Q 1172 725 1289 603 
Q 1406 481 1766 481 
L 2356 481 
L 2356 0 
L 1766 0 
Q 1100 0 847 248 
Q 594 497 594 1153 
L 594 3053 
L 172 3053 
L 172 3500 
L 594 3500 
L 594 4494 
L 1172 4494 
z
" transform="scale(0.015625)"/>
      <path id="DejaVuSans-69" d="M 603 3500 
L 1178 3500 
L 1178 0 
L 603 0 
L 603 3500 
z
M 603 4863 
L 1178 4863 
L 1178 4134 
L 603 4134 
L 603 4863 
z
" transform="scale(0.015625)"/>
      <path id="DejaVuSans-6c" d="M 603 4863 
L 1178 4863 
L 1178 0 
L 603 0 
L 603 4863 
z
" transform="scale(0.015625)"/>
      <path id="DejaVuSans-20" transform="scale(0.015625)"/>
      <path id="DejaVuSans-65" d="M 3597 1894 
L 3597 1613 
L 953 1613 
Q 991 1019 1311 708 
Q 1631 397 2203 397 
Q 2534 397 2845 478 
Q 3156 559 3463 722 
L 3463 178 
Q 3153 47 2828 -22 
Q 2503 -91 2169 -91 
Q 1331 -91 842 396 
Q 353 884 353 1716 
Q 353 2575 817 3079 
Q 1281 3584 2069 3584 
Q 2775 3584 3186 3129 
Q 3597 2675 3597 1894 
z
M 3022 2063 
Q 3016 2534 2758 2815 
Q 2500 3097 2075 3097 
Q 1594 3097 1305 2825 
Q 1016 2553 972 2059 
L 3022 2063 
z
" transform="scale(0.015625)"/>
      <path id="DejaVuSans-6f" d="M 1959 3097 
Q 1497 3097 1228 2736 
Q 959 2375 959 1747 
Q 959 1119 1226 758 
Q 1494 397 1959 397 
Q 2419 397 2687 759 
Q 2956 1122 2956 1747 
Q 2956 2369 2687 2733 
Q 2419 3097 1959 3097 
z
M 1959 3584 
Q 2709 3584 3137 3096 
Q 3566 2609 3566 1747 
Q 3566 888 3137 398 
Q 2709 -91 1959 -91 
Q 1206 -91 779 398 
Q 353 888 353 1747 
Q 353 2609 779 3096 
Q 1206 3584 1959 3584 
z
" transform="scale(0.015625)"/>
     </defs>
     <use xlink:href="#DejaVuSans-4f"/>
     <use xlink:href="#DejaVuSans-70" x="78.710938"/>
     <use xlink:href="#DejaVuSans-74" x="142.1875"/>
     <use xlink:href="#DejaVuSans-69" x="181.396484"/>
     <use xlink:href="#DejaVuSans-6d" x="209.179688"/>
     <use xlink:href="#DejaVuSans-61" x="306.591797"/>
     <use xlink:href="#DejaVuSans-6c" x="367.871094"/>
     <use xlink:href="#DejaVuSans-20" x="395.654297"/>
     <use xlink:href="#DejaVuSans-70" x="427.441406"/>
     <use xlink:href="#DejaVuSans-61" x="490.917969"/>
     <use xlink:href="#DejaVuSans-72" x="552.197266"/>
     <use xlink:href="#DejaVuSans-61" x="593.310547"/>
     <use xlink:href="#DejaVuSans-6d" x="654.589844"/>
     <use xlink:href="#DejaVuSans-65" x="752.001953"/>
     <use xlink:href="#DejaVuSans-74" x="813.525391"/>
     <use xlink:href="#DejaVuSans-65" x="852.734375"/>
     <use xlink:href="#DejaVuSans-72" x="914.257812"/>
     <use xlink:href="#DejaVuSans-20" x="955.371094"/>
     <use xlink:href="#DejaVuSans-6b" x="987.158203"/>
     <use xlink:href="#DejaVuSans-30" x="1045.068359"/>
     <use xlink:href="#DejaVuSans-20" x="1108.691406"/>
     <use xlink:href="#DejaVuSans-6f" x="1140.478516"/>
     <use xlink:href="#DejaVuSans-72" x="1201.660156"/>
     <use xlink:href="#DejaVuSans-20" x="1242.773438"/>
     <use xlink:href="#DejaVuSans-72" x="1274.560547"/>
    </g>
   </g>
   <g id="legend_1">
    <g id="patch_7">
     <path d="M 411.865525 221.13375 
L 576.865525 221.13375 
Q 578.865525 221.13375 578.865525 219.13375 
L 578.865525 29.318125 
Q 578.865525 27.318125 576.865525 27.318125 
L 411.865525 27.318125 
Q 409.865525 27.318125 409.865525 29.318125 
L 409.865525 219.13375 
Q 409.865525 221.13375 411.865525 221.13375 
z
" style="fill: #ffffff; opacity: 0.8; stroke: #cccccc; stroke-linejoin: miter"/>
    </g>
    <g id="text_17">
     <!-- Minimizer type -->
     <g transform="translate(441.865525 38.916562) scale(0.1 -0.1)">
      <defs>
       <path id="DejaVuSans-4d" d="M 628 4666 
L 1569 4666 
L 2759 1491 
L 3956 4666 
L 4897 4666 
L 4897 0 
L 4281 0 
L 4281 4097 
L 3078 897 
L 2444 897 
L 1241 4097 
L 1241 0 
L 628 0 
L 628 4666 
z
" transform="scale(0.015625)"/>
       <path id="DejaVuSans-6e" d="M 3513 2113 
L 3513 0 
L 2938 0 
L 2938 2094 
Q 2938 2591 2744 2837 
Q 2550 3084 2163 3084 
Q 1697 3084 1428 2787 
Q 1159 2491 1159 1978 
L 1159 0 
L 581 0 
L 581 3500 
L 1159 3500 
L 1159 2956 
Q 1366 3272 1645 3428 
Q 1925 3584 2291 3584 
Q 2894 3584 3203 3211 
Q 3513 2838 3513 2113 
z
" transform="scale(0.015625)"/>
       <path id="DejaVuSans-7a" d="M 353 3500 
L 3084 3500 
L 3084 2975 
L 922 459 
L 3084 459 
L 3084 0 
L 275 0 
L 275 525 
L 2438 3041 
L 353 3041 
L 353 3500 
z
" transform="scale(0.015625)"/>
       <path id="DejaVuSans-79" d="M 2059 -325 
Q 1816 -950 1584 -1140 
Q 1353 -1331 966 -1331 
L 506 -1331 
L 506 -850 
L 844 -850 
Q 1081 -850 1212 -737 
Q 1344 -625 1503 -206 
L 1606 56 
L 191 3500 
L 800 3500 
L 1894 763 
L 2988 3500 
L 3597 3500 
L 2059 -325 
z
" transform="scale(0.015625)"/>
      </defs>
      <use xlink:href="#DejaVuSans-4d"/>
      <use xlink:href="#DejaVuSans-69" x="86.279297"/>
      <use xlink:href="#DejaVuSans-6e" x="114.0625"/>
      <use xlink:href="#DejaVuSans-69" x="177.441406"/>
      <use xlink:href="#DejaVuSans-6d" x="205.224609"/>
      <use xlink:href="#DejaVuSans-69" x="302.636719"/>
      <use xlink:href="#DejaVuSans-7a" x="330.419922"/>
      <use xlink:href="#DejaVuSans-65" x="382.910156"/>
      <use xlink:href="#DejaVuSans-72" x="444.433594"/>
      <use xlink:href="#DejaVuSans-20" x="485.546875"/>
      <use xlink:href="#DejaVuSans-74" x="517.333984"/>
      <use xlink:href="#DejaVuSans-79" x="556.542969"/>
      <use xlink:href="#DejaVuSans-70" x="615.722656"/>
      <use xlink:href="#DejaVuSans-65" x="679.199219"/>
     </g>
    </g>
    <g id="line2d_49">
     <path d="M 413.865525 50.094688 
L 423.865525 50.094688 
L 433.865525 50.094688 
" style="fill: none; stroke: #1f77b4; stroke-width: 1.5; stroke-linecap: square"/>
    </g>
    <g id="text_18">
     <!-- Random minimizer -->
     <g transform="translate(441.865525 53.594688) scale(0.1 -0.1)">
      <defs>
       <path id="DejaVuSans-52" d="M 2841 2188 
Q 3044 2119 3236 1894 
Q 3428 1669 3622 1275 
L 4263 0 
L 3584 0 
L 2988 1197 
Q 2756 1666 2539 1819 
Q 2322 1972 1947 1972 
L 1259 1972 
L 1259 0 
L 628 0 
L 628 4666 
L 2053 4666 
Q 2853 4666 3247 4331 
Q 3641 3997 3641 3322 
Q 3641 2881 3436 2590 
Q 3231 2300 2841 2188 
z
M 1259 4147 
L 1259 2491 
L 2053 2491 
Q 2509 2491 2742 2702 
Q 2975 2913 2975 3322 
Q 2975 3731 2742 3939 
Q 2509 4147 2053 4147 
L 1259 4147 
z
" transform="scale(0.015625)"/>
       <path id="DejaVuSans-64" d="M 2906 2969 
L 2906 4863 
L 3481 4863 
L 3481 0 
L 2906 0 
L 2906 525 
Q 2725 213 2448 61 
Q 2172 -91 1784 -91 
Q 1150 -91 751 415 
Q 353 922 353 1747 
Q 353 2572 751 3078 
Q 1150 3584 1784 3584 
Q 2172 3584 2448 3432 
Q 2725 3281 2906 2969 
z
M 947 1747 
Q 947 1113 1208 752 
Q 1469 391 1925 391 
Q 2381 391 2643 752 
Q 2906 1113 2906 1747 
Q 2906 2381 2643 2742 
Q 2381 3103 1925 3103 
Q 1469 3103 1208 2742 
Q 947 2381 947 1747 
z
" transform="scale(0.015625)"/>
      </defs>
      <use xlink:href="#DejaVuSans-52"/>
      <use xlink:href="#DejaVuSans-61" x="67.232422"/>
      <use xlink:href="#DejaVuSans-6e" x="128.511719"/>
      <use xlink:href="#DejaVuSans-64" x="191.890625"/>
      <use xlink:href="#DejaVuSans-6f" x="255.367188"/>
      <use xlink:href="#DejaVuSans-6d" x="316.548828"/>
      <use xlink:href="#DejaVuSans-20" x="413.960938"/>
      <use xlink:href="#DejaVuSans-6d" x="445.748047"/>
      <use xlink:href="#DejaVuSans-69" x="543.160156"/>
      <use xlink:href="#DejaVuSans-6e" x="570.943359"/>
      <use xlink:href="#DejaVuSans-69" x="634.322266"/>
      <use xlink:href="#DejaVuSans-6d" x="662.105469"/>
      <use xlink:href="#DejaVuSans-69" x="759.517578"/>
      <use xlink:href="#DejaVuSans-7a" x="787.300781"/>
      <use xlink:href="#DejaVuSans-65" x="839.791016"/>
      <use xlink:href="#DejaVuSans-72" x="901.314453"/>
     </g>
    </g>
    <g id="line2d_50">
     <path d="M 413.865525 64.772812 
L 423.865525 64.772812 
L 433.865525 64.772812 
" style="fill: none; stroke: #ff7f0e; stroke-width: 1.5; stroke-linecap: square"/>
    </g>
    <g id="text_19">
     <!-- Miniception -->
     <g transform="translate(441.865525 68.272812) scale(0.1 -0.1)">
      <defs>
       <path id="DejaVuSans-63" d="M 3122 3366 
L 3122 2828 
Q 2878 2963 2633 3030 
Q 2388 3097 2138 3097 
Q 1578 3097 1268 2742 
Q 959 2388 959 1747 
Q 959 1106 1268 751 
Q 1578 397 2138 397 
Q 2388 397 2633 464 
Q 2878 531 3122 666 
L 3122 134 
Q 2881 22 2623 -34 
Q 2366 -91 2075 -91 
Q 1284 -91 818 406 
Q 353 903 353 1747 
Q 353 2603 823 3093 
Q 1294 3584 2113 3584 
Q 2378 3584 2631 3529 
Q 2884 3475 3122 3366 
z
" transform="scale(0.015625)"/>
      </defs>
      <use xlink:href="#DejaVuSans-4d"/>
      <use xlink:href="#DejaVuSans-69" x="86.279297"/>
      <use xlink:href="#DejaVuSans-6e" x="114.0625"/>
      <use xlink:href="#DejaVuSans-69" x="177.441406"/>
      <use xlink:href="#DejaVuSans-63" x="205.224609"/>
      <use xlink:href="#DejaVuSans-65" x="260.205078"/>
      <use xlink:href="#DejaVuSans-70" x="321.728516"/>
      <use xlink:href="#DejaVuSans-74" x="385.205078"/>
      <use xlink:href="#DejaVuSans-69" x="424.414062"/>
      <use xlink:href="#DejaVuSans-6f" x="452.197266"/>
      <use xlink:href="#DejaVuSans-6e" x="513.378906"/>
     </g>
    </g>
    <g id="line2d_51">
     <path d="M 413.865525 79.450938 
L 423.865525 79.450938 
L 433.865525 79.450938 
" style="fill: none; stroke: #2ca02c; stroke-width: 1.5; stroke-linecap: square"/>
    </g>
    <g id="text_20">
     <!-- Modified miniception -->
     <g transform="translate(441.865525 82.950938) scale(0.1 -0.1)">
      <defs>
       <path id="DejaVuSans-66" d="M 2375 4863 
L 2375 4384 
L 1825 4384 
Q 1516 4384 1395 4259 
Q 1275 4134 1275 3809 
L 1275 3500 
L 2222 3500 
L 2222 3053 
L 1275 3053 
L 1275 0 
L 697 0 
L 697 3053 
L 147 3053 
L 147 3500 
L 697 3500 
L 697 3744 
Q 697 4328 969 4595 
Q 1241 4863 1831 4863 
L 2375 4863 
z
" transform="scale(0.015625)"/>
      </defs>
      <use xlink:href="#DejaVuSans-4d"/>
      <use xlink:href="#DejaVuSans-6f" x="86.279297"/>
      <use xlink:href="#DejaVuSans-64" x="147.460938"/>
      <use xlink:href="#DejaVuSans-69" x="210.9375"/>
      <use xlink:href="#DejaVuSans-66" x="238.720703"/>
      <use xlink:href="#DejaVuSans-69" x="273.925781"/>
      <use xlink:href="#DejaVuSans-65" x="301.708984"/>
      <use xlink:href="#DejaVuSans-64" x="363.232422"/>
      <use xlink:href="#DejaVuSans-20" x="426.708984"/>
      <use xlink:href="#DejaVuSans-6d" x="458.496094"/>
      <use xlink:href="#DejaVuSans-69" x="555.908203"/>
      <use xlink:href="#DejaVuSans-6e" x="583.691406"/>
      <use xlink:href="#DejaVuSans-69" x="647.070312"/>
      <use xlink:href="#DejaVuSans-63" x="674.853516"/>
      <use xlink:href="#DejaVuSans-65" x="729.833984"/>
      <use xlink:href="#DejaVuSans-70" x="791.357422"/>
      <use xlink:href="#DejaVuSans-74" x="854.833984"/>
      <use xlink:href="#DejaVuSans-69" x="894.042969"/>
      <use xlink:href="#DejaVuSans-6f" x="921.826172"/>
      <use xlink:href="#DejaVuSans-6e" x="983.007812"/>
     </g>
    </g>
    <g id="line2d_52">
     <path d="M 413.865525 94.129063 
L 423.865525 94.129063 
L 433.865525 94.129063 
" style="fill: none; stroke: #d62728; stroke-width: 1.5; stroke-linecap: square"/>
    </g>
    <g id="text_21">
     <!-- LR-minimizer -->
     <g transform="translate(441.865525 97.629063) scale(0.1 -0.1)">
      <defs>
       <path id="DejaVuSans-4c" d="M 628 4666 
L 1259 4666 
L 1259 531 
L 3531 531 
L 3531 0 
L 628 0 
L 628 4666 
z
" transform="scale(0.015625)"/>
       <path id="DejaVuSans-2d" d="M 313 2009 
L 1997 2009 
L 1997 1497 
L 313 1497 
L 313 2009 
z
" transform="scale(0.015625)"/>
      </defs>
      <use xlink:href="#DejaVuSans-4c"/>
      <use xlink:href="#DejaVuSans-52" x="55.712891"/>
      <use xlink:href="#DejaVuSans-2d" x="121.195312"/>
      <use xlink:href="#DejaVuSans-6d" x="157.279297"/>
      <use xlink:href="#DejaVuSans-69" x="254.691406"/>
      <use xlink:href="#DejaVuSans-6e" x="282.474609"/>
      <use xlink:href="#DejaVuSans-69" x="345.853516"/>
      <use xlink:href="#DejaVuSans-6d" x="373.636719"/>
      <use xlink:href="#DejaVuSans-69" x="471.048828"/>
      <use xlink:href="#DejaVuSans-7a" x="498.832031"/>
      <use xlink:href="#DejaVuSans-65" x="551.322266"/>
      <use xlink:href="#DejaVuSans-72" x="612.845703"/>
     </g>
    </g>
    <g id="line2d_53">
     <path d="M 413.865525 108.807187 
L 423.865525 108.807187 
L 433.865525 108.807187 
" style="fill: none; stroke: #9467bd; stroke-width: 1.5; stroke-linecap: square"/>
    </g>
    <g id="text_22">
     <!-- Mod-minimizer -->
     <g transform="translate(441.865525 112.307187) scale(0.1 -0.1)">
      <use xlink:href="#DejaVuSans-4d"/>
      <use xlink:href="#DejaVuSans-6f" x="86.279297"/>
      <use xlink:href="#DejaVuSans-64" x="147.460938"/>
      <use xlink:href="#DejaVuSans-2d" x="210.9375"/>
      <use xlink:href="#DejaVuSans-6d" x="247.021484"/>
      <use xlink:href="#DejaVuSans-69" x="344.433594"/>
      <use xlink:href="#DejaVuSans-6e" x="372.216797"/>
      <use xlink:href="#DejaVuSans-69" x="435.595703"/>
      <use xlink:href="#DejaVuSans-6d" x="463.378906"/>
      <use xlink:href="#DejaVuSans-69" x="560.791016"/>
      <use xlink:href="#DejaVuSans-7a" x="588.574219"/>
      <use xlink:href="#DejaVuSans-65" x="641.064453"/>
      <use xlink:href="#DejaVuSans-72" x="702.587891"/>
     </g>
    </g>
    <g id="line2d_54">
     <path d="M 413.865525 123.485313 
L 423.865525 123.485313 
L 433.865525 123.485313 
" style="fill: none; stroke: #8c564b; stroke-width: 1.5; stroke-linecap: square"/>
    </g>
    <g id="text_23">
     <!-- DecyclingMinimizer -->
     <g transform="translate(441.865525 126.985313) scale(0.1 -0.1)">
      <defs>
       <path id="DejaVuSans-44" d="M 1259 4147 
L 1259 519 
L 2022 519 
Q 2988 519 3436 956 
Q 3884 1394 3884 2338 
Q 3884 3275 3436 3711 
Q 2988 4147 2022 4147 
L 1259 4147 
z
M 628 4666 
L 1925 4666 
Q 3281 4666 3915 4102 
Q 4550 3538 4550 2338 
Q 4550 1131 3912 565 
Q 3275 0 1925 0 
L 628 0 
L 628 4666 
z
" transform="scale(0.015625)"/>
       <path id="DejaVuSans-67" d="M 2906 1791 
Q 2906 2416 2648 2759 
Q 2391 3103 1925 3103 
Q 1463 3103 1205 2759 
Q 947 2416 947 1791 
Q 947 1169 1205 825 
Q 1463 481 1925 481 
Q 2391 481 2648 825 
Q 2906 1169 2906 1791 
z
M 3481 434 
Q 3481 -459 3084 -895 
Q 2688 -1331 1869 -1331 
Q 1566 -1331 1297 -1286 
Q 1028 -1241 775 -1147 
L 775 -588 
Q 1028 -725 1275 -790 
Q 1522 -856 1778 -856 
Q 2344 -856 2625 -561 
Q 2906 -266 2906 331 
L 2906 616 
Q 2728 306 2450 153 
Q 2172 0 1784 0 
Q 1141 0 747 490 
Q 353 981 353 1791 
Q 353 2603 747 3093 
Q 1141 3584 1784 3584 
Q 2172 3584 2450 3431 
Q 2728 3278 2906 2969 
L 2906 3500 
L 3481 3500 
L 3481 434 
z
" transform="scale(0.015625)"/>
      </defs>
      <use xlink:href="#DejaVuSans-44"/>
      <use xlink:href="#DejaVuSans-65" x="77.001953"/>
      <use xlink:href="#DejaVuSans-63" x="138.525391"/>
      <use xlink:href="#DejaVuSans-79" x="193.505859"/>
      <use xlink:href="#DejaVuSans-63" x="252.685547"/>
      <use xlink:href="#DejaVuSans-6c" x="307.666016"/>
      <use xlink:href="#DejaVuSans-69" x="335.449219"/>
      <use xlink:href="#DejaVuSans-6e" x="363.232422"/>
      <use xlink:href="#DejaVuSans-67" x="426.611328"/>
      <use xlink:href="#DejaVuSans-4d" x="490.087891"/>
      <use xlink:href="#DejaVuSans-69" x="576.367188"/>
      <use xlink:href="#DejaVuSans-6e" x="604.150391"/>
      <use xlink:href="#DejaVuSans-69" x="667.529297"/>
      <use xlink:href="#DejaVuSans-6d" x="695.3125"/>
      <use xlink:href="#DejaVuSans-69" x="792.724609"/>
      <use xlink:href="#DejaVuSans-7a" x="820.507812"/>
      <use xlink:href="#DejaVuSans-65" x="872.998047"/>
      <use xlink:href="#DejaVuSans-72" x="934.521484"/>
     </g>
    </g>
    <g id="line2d_55">
     <path d="M 413.865525 138.163437 
L 423.865525 138.163437 
L 433.865525 138.163437 
" style="fill: none; stroke: #e377c2; stroke-width: 1.5; stroke-linecap: square"/>
    </g>
    <g id="text_24">
     <!-- DoubleDecyclingMinimizer -->
     <g transform="translate(441.865525 141.663437) scale(0.1 -0.1)">
      <defs>
       <path id="DejaVuSans-75" d="M 544 1381 
L 544 3500 
L 1119 3500 
L 1119 1403 
Q 1119 906 1312 657 
Q 1506 409 1894 409 
Q 2359 409 2629 706 
Q 2900 1003 2900 1516 
L 2900 3500 
L 3475 3500 
L 3475 0 
L 2900 0 
L 2900 538 
Q 2691 219 2414 64 
Q 2138 -91 1772 -91 
Q 1169 -91 856 284 
Q 544 659 544 1381 
z
M 1991 3584 
L 1991 3584 
z
" transform="scale(0.015625)"/>
       <path id="DejaVuSans-62" d="M 3116 1747 
Q 3116 2381 2855 2742 
Q 2594 3103 2138 3103 
Q 1681 3103 1420 2742 
Q 1159 2381 1159 1747 
Q 1159 1113 1420 752 
Q 1681 391 2138 391 
Q 2594 391 2855 752 
Q 3116 1113 3116 1747 
z
M 1159 2969 
Q 1341 3281 1617 3432 
Q 1894 3584 2278 3584 
Q 2916 3584 3314 3078 
Q 3713 2572 3713 1747 
Q 3713 922 3314 415 
Q 2916 -91 2278 -91 
Q 1894 -91 1617 61 
Q 1341 213 1159 525 
L 1159 0 
L 581 0 
L 581 4863 
L 1159 4863 
L 1159 2969 
z
" transform="scale(0.015625)"/>
      </defs>
      <use xlink:href="#DejaVuSans-44"/>
      <use xlink:href="#DejaVuSans-6f" x="77.001953"/>
      <use xlink:href="#DejaVuSans-75" x="138.183594"/>
      <use xlink:href="#DejaVuSans-62" x="201.5625"/>
      <use xlink:href="#DejaVuSans-6c" x="265.039062"/>
      <use xlink:href="#DejaVuSans-65" x="292.822266"/>
      <use xlink:href="#DejaVuSans-44" x="354.345703"/>
      <use xlink:href="#DejaVuSans-65" x="431.347656"/>
      <use xlink:href="#DejaVuSans-63" x="492.871094"/>
      <use xlink:href="#DejaVuSans-79" x="547.851562"/>
      <use xlink:href="#DejaVuSans-63" x="607.03125"/>
      <use xlink:href="#DejaVuSans-6c" x="662.011719"/>
      <use xlink:href="#DejaVuSans-69" x="689.794922"/>
      <use xlink:href="#DejaVuSans-6e" x="717.578125"/>
      <use xlink:href="#DejaVuSans-67" x="780.957031"/>
      <use xlink:href="#DejaVuSans-4d" x="844.433594"/>
      <use xlink:href="#DejaVuSans-69" x="930.712891"/>
      <use xlink:href="#DejaVuSans-6e" x="958.496094"/>
      <use xlink:href="#DejaVuSans-69" x="1021.875"/>
      <use xlink:href="#DejaVuSans-6d" x="1049.658203"/>
      <use xlink:href="#DejaVuSans-69" x="1147.070312"/>
      <use xlink:href="#DejaVuSans-7a" x="1174.853516"/>
      <use xlink:href="#DejaVuSans-65" x="1227.34375"/>
      <use xlink:href="#DejaVuSans-72" x="1288.867188"/>
     </g>
    </g>
    <g id="line2d_56">
     <path d="M 413.865525 152.841563 
L 423.865525 152.841563 
L 433.865525 152.841563 
" style="fill: none; stroke: #7f7f7f; stroke-width: 1.5; stroke-linecap: square"/>
    </g>
    <g id="text_25">
     <!-- RotMinimizer -->
     <g transform="translate(441.865525 156.341563) scale(0.1 -0.1)">
      <use xlink:href="#DejaVuSans-52"/>
      <use xlink:href="#DejaVuSans-6f" x="64.982422"/>
      <use xlink:href="#DejaVuSans-74" x="126.164062"/>
      <use xlink:href="#DejaVuSans-4d" x="165.373047"/>
      <use xlink:href="#DejaVuSans-69" x="251.652344"/>
      <use xlink:href="#DejaVuSans-6e" x="279.435547"/>
      <use xlink:href="#DejaVuSans-69" x="342.814453"/>
      <use xlink:href="#DejaVuSans-6d" x="370.597656"/>
      <use xlink:href="#DejaVuSans-69" x="468.009766"/>
      <use xlink:href="#DejaVuSans-7a" x="495.792969"/>
      <use xlink:href="#DejaVuSans-65" x="548.283203"/>
      <use xlink:href="#DejaVuSans-72" x="609.806641"/>
     </g>
    </g>
    <g id="text_26">
     <!-- w -->
     <g transform="translate(441.865525 171.019687) scale(0.1 -0.1)">
      <defs>
       <path id="DejaVuSans-77" d="M 269 3500 
L 844 3500 
L 1563 769 
L 2278 3500 
L 2956 3500 
L 3675 769 
L 4391 3500 
L 4966 3500 
L 4050 0 
L 3372 0 
L 2619 2869 
L 1863 0 
L 1184 0 
L 269 3500 
z
" transform="scale(0.015625)"/>
      </defs>
      <use xlink:href="#DejaVuSans-77"/>
     </g>
    </g>
    <g id="line2d_57">
     <path d="M 413.865525 182.197812 
L 423.865525 182.197812 
L 433.865525 182.197812 
" style="fill: none; stroke: #333333; stroke-width: 0.75; stroke-linecap: square"/>
    </g>
    <g id="text_27">
     <!-- 8 -->
     <g transform="translate(441.865525 185.697812) scale(0.1 -0.1)">
      <defs>
       <path id="DejaVuSans-38" d="M 2034 2216 
Q 1584 2216 1326 1975 
Q 1069 1734 1069 1313 
Q 1069 891 1326 650 
Q 1584 409 2034 409 
Q 2484 409 2743 651 
Q 3003 894 3003 1313 
Q 3003 1734 2745 1975 
Q 2488 2216 2034 2216 
z
M 1403 2484 
Q 997 2584 770 2862 
Q 544 3141 544 3541 
Q 544 4100 942 4425 
Q 1341 4750 2034 4750 
Q 2731 4750 3128 4425 
Q 3525 4100 3525 3541 
Q 3525 3141 3298 2862 
Q 3072 2584 2669 2484 
Q 3125 2378 3379 2068 
Q 3634 1759 3634 1313 
Q 3634 634 3220 271 
Q 2806 -91 2034 -91 
Q 1263 -91 848 271 
Q 434 634 434 1313 
Q 434 1759 690 2068 
Q 947 2378 1403 2484 
z
M 1172 3481 
Q 1172 3119 1398 2916 
Q 1625 2713 2034 2713 
Q 2441 2713 2670 2916 
Q 2900 3119 2900 3481 
Q 2900 3844 2670 4047 
Q 2441 4250 2034 4250 
Q 1625 4250 1398 4047 
Q 1172 3844 1172 3481 
z
" transform="scale(0.015625)"/>
      </defs>
      <use xlink:href="#DejaVuSans-38"/>
     </g>
    </g>
    <g id="line2d_58">
     <path d="M 413.865525 196.875937 
L 423.865525 196.875937 
L 433.865525 196.875937 
" style="fill: none; stroke: #333333; stroke-width: 1.5; stroke-linecap: square"/>
    </g>
    <g id="text_28">
     <!-- 16 -->
     <g transform="translate(441.865525 200.375937) scale(0.1 -0.1)">
      <use xlink:href="#DejaVuSans-31"/>
      <use xlink:href="#DejaVuSans-36" x="63.623047"/>
     </g>
    </g>
    <g id="line2d_59">
     <path d="M 413.865525 211.554062 
L 423.865525 211.554062 
L 433.865525 211.554062 
" style="fill: none; stroke: #333333; stroke-width: 3; stroke-linecap: square"/>
    </g>
    <g id="text_29">
     <!-- 32 -->
     <g transform="translate(441.865525 215.054062) scale(0.1 -0.1)">
      <use xlink:href="#DejaVuSans-33"/>
      <use xlink:href="#DejaVuSans-32" x="63.623047"/>
     </g>
    </g>
   </g>
  </g>
 </g>
 <defs>
  <clipPath id="pfd79b26cd0">
   <rect x="40.603125" y="22.318125" width="357.12" height="266.112"/>
  </clipPath>
 </defs>
</svg>
